<svg xmlns="http://www.w3.org/2000/svg" viewBox="0 0 900 580">
  <defs>
    <style>
      @import url('https://fonts.googleapis.com/css2?family=Inter:wght@400;500;600;700&amp;family=JetBrains+Mono:wght@400;700&amp;display=swap');
      .txt-ui { font-family: 'Inter', system-ui, sans-serif; }
      .txt-mono { font-family: 'JetBrains Mono', 'Fira Code', monospace; }
    </style>

    <filter id="shadow" x="-20%" y="-20%" width="140%" height="140%">
      <feDropShadow dx="0" dy="4" stdDeviation="6" flood-color="#000" flood-opacity="0.25"/>
    </filter>

    <pattern id="grid" width="40" height="40" patternUnits="userSpaceOnUse">
      <path d="M 40 0 L 0 0 0 40" fill="none" stroke="#334155" stroke-width="0.5" stroke-opacity="0.3"/>
    </pattern>

    <marker id="arrow" markerWidth="10" markerHeight="10" refX="8" refY="3" orient="auto">
      <path d="M0,0 L0,6 L9,3 z" fill="#60a5fa" />
    </marker>
    <marker id="dot" markerWidth="8" markerHeight="8" refX="4" refY="4" orient="auto">
      <circle cx="4" cy="4" r="3" fill="#60a5fa" />
    </marker>
  </defs>

  <rect width="900" height="580" fill="#0f172a"/>
  <rect width="900" height="580" fill="url(#grid)"/>
  
  <rect x="180" y="30" width="540" height="450" rx="16" fill="#1e293b" fill-opacity="0.7" stroke="#3b82f6" stroke-width="1" stroke-opacity="0.3" filter="url(#shadow)"/>
  
  <path d="M 180 76 L 720 76" stroke="#334155" stroke-width="1"/>
  <g transform="translate(200, 54)">
    <rect x="0" y="0" width="24" height="24" rx="6" fill="#3b82f6" fill-opacity="0.2"/>
    <path d="M 6 12 L 10 16 L 18 8" stroke="#60a5fa" stroke-width="2" fill="none" stroke-linecap="round" stroke-linejoin="round"/>
    <text x="34" y="6" class="txt-ui" font-weight="700" font-size="16" fill="#f8fafc" alignment-baseline="hanging">LocalMod: Content Moderator Engine</text>
    <text x="34" y="24" class="txt-ui" font-weight="400" font-size="11" fill="#94a3b8" alignment-baseline="hanging">Orchestrating 5 parallel specialized models</text>
  </g>
  <rect x="630" y="48" width="70" height="20" rx="10" fill="#22c55e" fill-opacity="0.1" stroke="#22c55e" stroke-width="1" stroke-opacity="0.3"/>
  <text x="665" y="62" text-anchor="middle" class="txt-ui" font-size="10" font-weight="600" fill="#4ade80">● Active</text>

  <g transform="translate(30, 130)">
    <rect width="110" height="80" rx="8" fill="#1e293b" stroke="#475569" stroke-width="1" filter="url(#shadow)"/>
    <text x="55" y="25" text-anchor="middle" class="txt-ui" font-size="12" font-weight="600" fill="#e2e8f0">User Content</text>
    <rect x="10" y="35" width="90" height="35" rx="4" fill="#0f172a"/>
    <text x="18" y="52" class="txt-mono" font-size="9" fill="#94a3b8">"any text...</text>
    <text x="18" y="64" class="txt-mono" font-size="9" fill="#94a3b8">messages"</text>
  </g>

  <line x1="140" y1="170" x2="180" y2="170" stroke="#60a5fa" stroke-width="2" marker-end="url(#arrow)"/>
  
  <path d="M 180 170 L 645 170" stroke="#60a5fa" stroke-width="1.5" stroke-dasharray="4,4"/>
  
  <line x1="245" y1="170" x2="245" y2="205" stroke="#60a5fa" stroke-width="1" marker-start="url(#dot)" marker-end="url(#arrow)"/>
  <line x1="345" y1="170" x2="345" y2="205" stroke="#60a5fa" stroke-width="1" marker-start="url(#dot)" marker-end="url(#arrow)"/>
  <line x1="445" y1="170" x2="445" y2="205" stroke="#60a5fa" stroke-width="1" marker-start="url(#dot)" marker-end="url(#arrow)"/>
  <line x1="545" y1="170" x2="545" y2="205" stroke="#60a5fa" stroke-width="1" marker-start="url(#dot)" marker-end="url(#arrow)"/>
  <line x1="645" y1="170" x2="645" y2="205" stroke="#60a5fa" stroke-width="1" marker-start="url(#dot)" marker-end="url(#arrow)"/>

  <rect x="195" y="180" width="510" height="150" rx="8" fill="#0f172a" fill-opacity="0.3" stroke="#334155" stroke-width="1" stroke-dasharray="4"/>
  <text x="450" y="195" text-anchor="middle" class="txt-ui" font-size="10" font-weight="600" fill="#94a3b8" letter-spacing="1">ENSEMBLE OF SPECIALIZED MODELS</text>

  <g transform="translate(200, 205)">
    <g id="cards">
        <g transform="translate(0,0)">
            <rect width="90" height="85" rx="6" fill="#7c3aed" fill-opacity="0.08" stroke="#7c3aed" stroke-width="1" stroke-opacity="0.4"/>
            <text x="10" y="20" class="txt-ui" font-size="11" font-weight="600" fill="#d8b4fe">🔥 Toxicity</text>
            <text x="10" y="38" class="txt-ui" font-size="9" fill="#a78bfa">Hate speech</text>
            <text x="10" y="48" class="txt-ui" font-size="9" fill="#a78bfa">Harassment</text>
            <text x="10" y="68" class="txt-mono" font-size="8" font-weight="700" fill="#c4b5fd">DistilBERT</text>
        </g>
        <g transform="translate(100,0)">
            <rect width="90" height="85" rx="6" fill="#06b6d4" fill-opacity="0.08" stroke="#06b6d4" stroke-width="1" stroke-opacity="0.4"/>
            <text x="10" y="20" class="txt-ui" font-size="11" font-weight="600" fill="#67e8f9">🔒 PII</text>
            <text x="10" y="38" class="txt-ui" font-size="9" fill="#67e8f9">Emails, SSN</text>
            <text x="10" y="48" class="txt-ui" font-size="9" fill="#67e8f9">Credit Cards</text>
            <text x="10" y="68" class="txt-mono" font-size="8" font-weight="700" fill="#a5f3fc">Regex</text>
        </g>
        <g transform="translate(200,0)">
            <rect width="90" height="85" rx="6" fill="#ef4444" fill-opacity="0.08" stroke="#ef4444" stroke-width="1" stroke-opacity="0.4"/>
            <text x="10" y="20" class="txt-ui" font-size="11" font-weight="600" fill="#fca5a5">⚡ Injection</text>
            <text x="10" y="38" class="txt-ui" font-size="9" fill="#fca5a5">Jailbreaks</text>
            <text x="10" y="48" class="txt-ui" font-size="9" fill="#fca5a5">Prompt attacks</text>
            <text x="10" y="68" class="txt-mono" font-size="8" font-weight="700" fill="#fecaca">DeBERTa</text>
        </g>
        <g transform="translate(300,0)">
            <rect width="90" height="85" rx="6" fill="#eab308" fill-opacity="0.08" stroke="#eab308" stroke-width="1" stroke-opacity="0.4"/>
            <text x="10" y="20" class="txt-ui" font-size="11" font-weight="600" fill="#fde047">📧 Spam</text>
            <text x="10" y="38" class="txt-ui" font-size="9" fill="#fde047">Scams</text>
            <text x="10" y="48" class="txt-ui" font-size="9" fill="#fde047">Promotions</text>
            <text x="10" y="68" class="txt-mono" font-size="8" font-weight="700" fill="#fef08a">BERT-tiny</text>
        </g>
        <g transform="translate(400,0)">
            <rect width="90" height="85" rx="6" fill="#db2777" fill-opacity="0.08" stroke="#db2777" stroke-width="1" stroke-opacity="0.4"/>
            <text x="10" y="20" class="txt-ui" font-size="11" font-weight="600" fill="#f9a8d4">🔞 NSFW</text>
            <text x="10" y="38" class="txt-ui" font-size="9" fill="#f9a8d4">Adult content</text>
            <text x="10" y="48" class="txt-ui" font-size="9" fill="#f9a8d4">Explicit text</text>
            <text x="10" y="68" class="txt-mono" font-size="8" font-weight="700" fill="#fbcfe8">NSFW-clf</text>
        </g>
    </g>
  </g>

  <g transform="translate(0, 290)">
      <line x1="245" y1="0" x2="245" y2="80" stroke="#475569" stroke-width="1.5" stroke-dasharray="3,3"/>
      <line x1="345" y1="0" x2="345" y2="80" stroke="#475569" stroke-width="1.5" stroke-dasharray="3,3"/>
      <line x1="445" y1="0" x2="445" y2="80" stroke="#475569" stroke-width="1.5" stroke-dasharray="3,3"/>
      <line x1="545" y1="0" x2="545" y2="80" stroke="#475569" stroke-width="1.5" stroke-dasharray="3,3"/>
      <line x1="645" y1="0" x2="645" y2="80" stroke="#475569" stroke-width="1.5" stroke-dasharray="3,3"/>
  </g>

  <rect x="220" y="370" width="460" height="30" rx="6" fill="#0f172a" stroke="#60a5fa" stroke-width="1"/>
  <text x="450" y="390" text-anchor="middle" class="txt-ui" font-size="11" font-weight="700" fill="#60a5fa">AGGREGATION &amp; DECISION LOGIC</text>

  <path d="M 310 400 L 310 420" stroke="#475569" stroke-width="1.5" fill="none"/>
  <rect x="270" y="405" width="80" height="14" rx="4" fill="#1e293b" fill-opacity="0.9"/>
  <text x="310" y="415" text-anchor="middle" class="txt-ui" font-size="9" fill="#4ade80">if none triggered</text>

  <path d="M 590 400 L 590 420" stroke="#475569" stroke-width="1.5" fill="none"/>
  <rect x="552" y="405" width="75" height="14" rx="4" fill="#1e293b" fill-opacity="0.9"/>
  <text x="590" y="415" text-anchor="middle" class="txt-ui" font-size="9" fill="#f87171">if any triggered</text>

  <g transform="translate(0, 425)">
    <rect x="270" y="0" width="80" height="28" rx="14" fill="#059669" fill-opacity="0.2" stroke="#059669"/>
    <text x="310" y="18" text-anchor="middle" class="txt-ui" font-size="12" font-weight="600" fill="#34d399">✓ Safe</text>

    <rect x="550" y="0" width="80" height="28" rx="14" fill="#dc2626" fill-opacity="0.2" stroke="#dc2626"/>
    <text x="590" y="18" text-anchor="middle" class="txt-ui" font-size="12" font-weight="600" fill="#f87171">⚠ Flagged</text>
  </g>

  <line x1="720" y1="255" x2="750" y2="255" stroke="#60a5fa" stroke-width="2" marker-end="url(#arrow)"/>

  <g transform="translate(760, 215)">
    <rect width="120" height="80" rx="8" fill="#1e293b" stroke="#475569" stroke-width="1" filter="url(#shadow)"/>
    <text x="60" y="25" text-anchor="middle" class="txt-ui" font-size="12" font-weight="600" fill="#e2e8f0">JSON Response</text>
    <rect x="10" y="35" width="100" height="35" rx="4" fill="#0f172a"/>
    <text x="16" y="50" class="txt-mono" font-size="9" fill="#22d3ee">"flagged": <tspan fill="#f472b6">false</tspan>,</text>
    <text x="16" y="62" class="txt-mono" font-size="9" fill="#22d3ee">"time_ms": <tspan fill="#fcd34d">42</tspan></text>
  </g>

  <line x1="50" y1="500" x2="850" y2="500" stroke="#334155" stroke-width="1"/>
  
  <g transform="translate(0, 530)">
     <g transform="translate(110, 0)">
       <text x="0" y="0" text-anchor="middle" class="txt-ui" font-size="20" font-weight="700" fill="#60a5fa">&lt;100ms</text>
       <text x="0" y="20" text-anchor="middle" class="txt-ui" font-size="10" fill="#94a3b8">CPU Latency</text>
     </g>
     <line x1="190" y1="-10" x2="190" y2="30" stroke="#334155" stroke-width="1"/>
     
     <g transform="translate(270, 0)">
       <text x="0" y="0" text-anchor="middle" class="txt-ui" font-size="20" font-weight="700" fill="#60a5fa">&lt;30ms</text>
       <text x="0" y="20" text-anchor="middle" class="txt-ui" font-size="10" fill="#94a3b8">GPU Latency</text>
     </g>
     <line x1="350" y1="-10" x2="350" y2="30" stroke="#334155" stroke-width="1"/>

     <g transform="translate(430, 0)">
       <text x="0" y="0" text-anchor="middle" class="txt-ui" font-size="20" font-weight="700" fill="#60a5fa">1 Docker</text>
       <text x="0" y="20" text-anchor="middle" class="txt-ui" font-size="10" fill="#94a3b8">Self-contained</text>
     </g>
     <line x1="510" y1="-10" x2="510" y2="30" stroke="#334155" stroke-width="1"/>

     <g transform="translate(590, 0)">
       <text x="0" y="0" text-anchor="middle" class="txt-ui" font-size="20" font-weight="700" fill="#60a5fa">0 API Keys</text>
       <text x="0" y="20" text-anchor="middle" class="txt-ui" font-size="10" fill="#94a3b8">Fully offline</text>
     </g>
     <line x1="670" y1="-10" x2="670" y2="30" stroke="#334155" stroke-width="1"/>

     <g transform="translate(750, 0)">
       <text x="0" y="0" text-anchor="middle" class="txt-ui" font-size="20" font-weight="700" fill="#60a5fa">&lt;2GB</text>
       <text x="0" y="20" text-anchor="middle" class="txt-ui" font-size="10" fill="#94a3b8">RAM Usage</text>
     </g>
  </g>
  
  <text x="450" y="570" text-anchor="middle" class="txt-ui" font-size="11" font-style="italic" fill="#64748b">Self-hosted content safety for teams who can't send data to the cloud</text>
</svg>
